<?xml version="1.0" encoding="UTF-8" standalone="no"?><!-- Generator: Gravit.io --><svg xmlns="http://www.w3.org/2000/svg" xmlns:xlink="http://www.w3.org/1999/xlink" style="isolation:isolate" viewBox="0 0 40 60" width="40pt" height="60pt"><defs><clipPath id="_clipPath_oOcC7Cqb5tZjrAsjsUng5dhbV0iGfo5l"><rect width="40" height="60"/></clipPath></defs><g clip-path="url(#_clipPath_oOcC7Cqb5tZjrAsjsUng5dhbV0iGfo5l)"><path d=" M 29.018 10.755 L 36.27 18.007 L 36.27 18.007 Q 36.92 18.658 37.385 19.773 L 37.385 19.773 L 37.385 19.773 Q 37.85 20.889 37.85 21.819 L 37.85 21.819 L 37.85 48.594 L 37.85 48.594 Q 37.85 49.523 37.199 50.174 L 37.199 50.174 L 37.199 50.174 Q 36.548 50.825 35.619 50.825 L 35.619 50.825 L 4.381 50.825 L 4.381 50.825 Q 3.452 50.825 2.801 50.174 L 2.801 50.174 L 2.801 50.174 Q 2.15 49.523 2.15 48.594 L 2.15 48.594 L 2.15 11.406 L 2.15 11.406 Q 2.15 10.477 2.801 9.826 L 2.801 9.826 L 2.801 9.826 Q 3.452 9.175 4.381 9.175 L 4.381 9.175 L 25.206 9.175 L 25.206 9.175 Q 26.136 9.175 27.252 9.64 L 27.252 9.64 L 27.252 9.64 Q 28.367 10.105 29.018 10.755 L 29.018 10.755 Z  M 25.95 12.336 L 25.95 12.336 L 25.95 21.075 L 34.689 21.075 L 34.689 21.075 Q 34.457 20.401 34.178 20.122 L 34.178 20.122 L 26.903 12.847 L 26.903 12.847 Q 26.624 12.568 25.95 12.336 Z  M 5.125 47.85 L 34.875 47.85 L 34.875 24.05 L 25.206 24.05 L 25.206 24.05 Q 24.277 24.05 23.626 23.399 L 23.626 23.399 L 23.626 23.399 Q 22.975 22.748 22.975 21.819 L 22.975 21.819 L 22.975 12.15 L 5.125 12.15 L 5.125 47.85 Z  M 22.929 34.067 L 22.929 34.067 L 22.929 34.067 Q 23.696 34.672 24.881 35.369 L 24.881 35.369 L 24.881 35.369 Q 26.252 35.206 27.6 35.206 L 27.6 35.206 L 27.6 35.206 Q 31.017 35.206 31.714 36.345 L 31.714 36.345 L 31.714 36.345 Q 32.086 36.856 31.761 37.554 L 31.761 37.554 L 31.761 37.554 Q 31.761 37.577 31.737 37.6 L 31.737 37.6 L 31.737 37.6 Q 31.714 37.623 31.691 37.647 L 31.691 37.647 L 31.691 37.67 L 31.691 37.67 Q 31.551 38.553 30.041 38.553 L 30.041 38.553 L 30.041 38.553 Q 28.925 38.553 27.368 38.088 L 27.368 38.088 L 27.368 38.088 Q 25.811 37.623 24.346 36.856 L 24.346 36.856 L 24.346 36.856 Q 19.21 37.414 15.235 38.786 L 15.235 38.786 L 15.235 38.786 Q 11.679 44.875 9.611 44.875 L 9.611 44.875 L 9.611 44.875 Q 9.262 44.875 8.96 44.712 L 8.96 44.712 L 8.402 44.433 L 8.402 44.433 Q 8.379 44.41 8.263 44.317 L 8.263 44.317 L 8.263 44.317 Q 8.03 44.085 8.123 43.48 L 8.123 43.48 L 8.123 43.48 Q 8.332 42.551 9.425 41.354 L 9.425 41.354 L 9.425 41.354 Q 10.517 40.157 12.493 39.111 L 12.493 39.111 L 12.493 39.111 Q 12.818 38.902 13.027 39.25 L 13.027 39.25 L 13.027 39.25 Q 13.074 39.297 13.074 39.343 L 13.074 39.343 L 13.074 39.343 Q 14.282 37.368 15.561 34.765 L 15.561 34.765 L 15.561 34.765 Q 17.141 31.604 17.978 28.675 L 17.978 28.675 L 17.978 28.675 Q 17.42 26.769 17.269 24.968 L 17.269 24.968 L 17.269 24.968 Q 17.118 23.167 17.42 22.005 L 17.42 22.005 L 17.42 22.005 Q 17.676 21.075 18.396 21.075 L 18.396 21.075 L 18.884 21.075 L 18.908 21.075 L 18.908 21.075 Q 19.442 21.075 19.721 21.424 L 19.721 21.424 L 19.721 21.424 Q 20.139 21.912 19.93 23.004 L 19.93 23.004 L 19.93 23.004 Q 19.884 23.144 19.837 23.19 L 19.837 23.19 L 19.837 23.19 Q 19.861 23.26 19.861 23.376 L 19.861 23.376 L 19.861 24.073 L 19.861 24.073 Q 19.814 26.932 19.535 28.536 L 19.535 28.536 L 19.535 28.536 Q 20.813 32.347 22.929 34.067 Z  M 9.541 43.62 L 9.541 43.62 L 9.541 43.62 Q 10.75 43.062 12.725 39.948 L 12.725 39.948 L 12.725 39.948 Q 11.54 40.877 10.692 41.9 L 10.692 41.9 L 10.692 41.9 Q 9.843 42.923 9.541 43.62 Z  M 18.791 22.191 L 18.791 22.237 L 18.791 22.237 Q 18.443 23.213 18.745 25.305 L 18.745 25.305 L 18.745 25.305 Q 18.768 25.142 18.908 24.282 L 18.908 24.282 L 18.908 24.282 Q 18.908 24.213 19.07 23.283 L 19.07 23.283 L 19.07 23.283 Q 19.094 23.19 19.163 23.097 L 19.163 23.097 L 19.163 23.097 Q 19.14 23.074 19.14 23.051 L 19.14 23.051 L 19.14 23.051 Q 19.117 23.004 19.117 22.981 L 19.117 22.981 L 19.117 22.981 Q 19.094 22.47 18.815 22.144 L 18.815 22.144 L 18.815 22.144 Q 18.815 22.167 18.791 22.191 L 18.791 22.191 Z  M 15.909 37.6 L 15.909 37.6 L 15.909 37.6 Q 19.047 36.345 22.51 35.718 L 22.51 35.718 L 22.51 35.718 Q 22.464 35.694 22.208 35.497 L 22.208 35.497 L 22.208 35.497 Q 21.952 35.299 21.836 35.183 L 21.836 35.183 L 21.836 35.183 Q 20.07 33.626 18.884 31.092 L 18.884 31.092 L 18.884 31.092 Q 18.257 33.091 16.955 35.671 L 16.955 35.671 L 16.955 35.671 Q 16.258 36.973 15.909 37.6 Z  M 30.924 37.228 L 30.924 37.228 L 30.924 37.228 Q 30.366 36.671 27.67 36.671 L 27.67 36.671 L 27.67 36.671 Q 29.436 37.321 30.552 37.321 L 30.552 37.321 L 30.552 37.321 Q 30.877 37.321 30.97 37.298 L 30.97 37.298 L 30.97 37.298 Q 30.97 37.275 30.924 37.228 Z " fill="rgb(255,255,255)"/></g></svg>